<svg width="47" height="47" viewBox="0 0 47 47" fill="none" xmlns="http://www.w3.org/2000/svg">
    <rect width="46.7721" height="46.7721" rx="23.386" fill="#CEDBEE"/>
    <path d="M23.3855 4.00049L21.1138 7.76781L23.3855 10.8915L32.2165 14.5552L36.5547 12.4888L37.0334 9.73832C33.5369 6.24172 28.7094 4.00049 23.3855 4.00049Z" fill="#FF4B00"/>
    <path d="M37.0328 9.73828L32.2158 14.5552L35.8796 23.3861L39.5002 25.6579L42.7706 23.3861C42.7706 18.0623 40.5294 13.2348 37.0328 9.73828Z" fill="#FFB334"/>
    <path d="M35.881 23.3867L32.2173 32.2176L32.4379 36.9817L37.0343 37.0346C40.5308 33.538 42.7721 28.7106 42.7721 23.3867H35.881Z" fill="#66BB00"/>
    <path d="M32.2155 32.2168L23.3846 35.8805L21.1128 39.6431L23.3846 42.7715C28.7085 42.7715 33.536 40.5303 37.0325 37.0337L32.2155 32.2168Z" fill="#00CC71"/>
    <path d="M14.5553 32.2177L10.0751 32.1543L9.73828 37.0346C13.2348 40.5311 18.0624 42.7724 23.3862 42.7724V35.8814L14.5553 32.2177Z" fill="#0095FF"/>
    <path d="M10.891 23.386L7.55434 21.1143L4 23.386C4 28.7099 6.24125 33.5373 9.73781 37.0338L14.5548 32.2169L10.891 23.386Z" fill="#6B77E8"/>
    <path d="M12.6305 10.3591L9.73789 9.73828C6.24125 13.2348 4 18.0623 4 23.3861H10.891L14.5548 14.5552L12.6305 10.3591Z" fill="#B760EA"/>
    <path d="M23.3848 10.891V4C18.0609 4 13.2334 6.24123 9.73682 9.73776L14.5538 14.5547C16.8163 12.2923 19.9399 10.891 23.3848 10.891Z" fill="#FF193D"/>
    <path d="M23.3855 10.8921L21.1138 14.2997L23.3855 17.7073L27.3995 19.3728L31.9047 17.1394L32.2165 14.5558C29.9541 12.2934 26.8304 10.8921 23.3855 10.8921Z" fill="#FF7816"/>
    <path d="M32.2169 14.5557L27.3999 19.3726L29.0653 23.3866L32.2169 25.6583L35.8806 23.3866C35.8806 19.9418 34.4793 16.8181 32.2169 14.5557Z" fill="#FDBF00"/>
    <path d="M29.0653 23.3857L27.3999 27.3997L27.938 30.2095L32.2169 32.2166C34.4793 29.9542 35.8806 26.8305 35.8806 23.3857H29.0653Z" fill="#77DD00"/>
    <path d="M27.3986 27.3999L23.3846 29.0653L21.1128 32.6149L23.3846 35.8806C26.8294 35.8806 29.9531 34.4793 32.2155 32.2168L27.3986 27.3999Z" fill="#00DD7B"/>
    <path d="M19.371 27.3999L14.5347 27.6927L14.5541 32.2168C16.8165 34.4793 19.9402 35.8806 23.385 35.8806V29.0653L19.371 27.3999Z" fill="#3AAAFF"/>
    <path d="M17.705 23.386L14.534 21.1143L10.8896 23.386C10.8896 26.8308 12.291 29.9545 14.5534 32.2169L19.3704 27.4L17.705 23.386Z" fill="#7984EB"/>
    <path d="M19.1263 14.583L14.5549 14.5552C12.2924 16.8176 10.8911 19.9413 10.8911 23.3861H17.7064L19.3719 19.3721L19.1263 14.583Z" fill="#CB75F6"/>
    <path d="M14.5547 14.5553L19.3717 19.3723L23.3857 17.7068V10.8916C19.9408 10.8916 16.8171 12.2929 14.5547 14.5553Z" fill="#FF4949"/>
    <path d="M27.3995 19.3724C26.3711 18.344 24.9512 17.707 23.3855 17.707L21.1138 19.9433L23.3855 23.3864L27.6643 21.3794L27.3995 19.3724Z" fill="#FFB334"/>
    <path d="M29.0652 23.386C29.0652 21.8203 28.4282 20.4005 27.3997 19.3721L23.3857 23.386L27.0063 25.6578L29.0652 23.386Z" fill="#FFD400"/>
    <path d="M27.3997 27.3997C28.4282 26.3713 29.0652 24.9514 29.0652 23.3857H23.3857L25.3928 27.6645L27.3997 27.3997Z" fill="#89F900"/>
    <path d="M23.3865 23.3857L21.1147 26.5804L23.3865 29.0651C24.9522 29.0651 26.3721 28.4281 27.4005 27.3997L23.3865 23.3857Z" fill="#00EE84"/>
    <path d="M23.3861 23.3867L19.9784 24.5226L19.3721 27.4007C20.4005 28.4291 21.8204 29.0661 23.3861 29.0661V23.3867Z" fill="#73BCFF"/>
    <path d="M17.707 23.3864C17.707 24.9521 18.344 26.3719 19.3725 27.4003L23.3865 23.3864L20.0498 22.2505L17.707 23.3864Z" fill="#979FEF"/>
    <path d="M19.3725 19.3726C18.344 20.401 17.707 21.8208 17.707 23.3865H23.3865L22.2506 19.9789L19.3725 19.3726Z" fill="#DA90F8"/>
    <path d="M23.3861 17.707C21.8204 17.707 20.4005 18.344 19.3721 19.3724L23.3861 23.3864V17.707Z" fill="#FF6C6C"/>
</svg>