<svg width="48" height="48" viewBox="0 0 48 48" fill="none" xmlns="http://www.w3.org/2000/svg">
    <rect x="0.79541" y="0.976562" width="46.7721" height="46.7721" rx="23.386" fill="#CEDBEE"/>
    <path d="M9.03564 32.2637V34.6155C9.03564 35.2018 9.45035 35.6722 9.96722 35.6722H38.3893C38.9062 35.6722 39.3269 35.2018 39.3269 34.6155V32.2637H9.03564Z" fill="#D3D9D9"/>
    <path d="M36.1538 35.6722H38.3956C38.9065 35.6722 39.3212 35.2018 39.3212 34.6224V32.2637H37.0854V34.6224C37.0854 35.2018 36.6707 35.6722 36.1538 35.6722Z" fill="#A8B2B4"/>
    <path d="M12.209 35.6722H9.96121C9.45035 35.6722 9.03564 35.2018 9.03564 34.6224V32.2637H11.2714V34.6224C11.2714 35.2018 11.6861 35.6722 12.209 35.6722Z" fill="#EDEDED"/>
    <path d="M39.3269 10.3062V32.2638H9.03564V10.3062C9.03564 9.7267 9.45035 9.24951 9.96121 9.24951H38.3833C38.9002 9.24951 39.3269 9.7267 39.3269 10.3062Z" fill="#D3F0FD"/>
    <path d="M38.3895 8.97656H9.96739C9.32431 8.97656 8.79541 9.56964 8.79541 10.3059V34.6154C8.79541 35.3517 9.32431 35.9448 9.96739 35.9448H20.8158L19.5176 39.2033H18.7302C18.598 39.2033 18.4898 39.326 18.4898 39.476C18.4898 39.626 18.598 39.7487 18.7302 39.7487H29.6447C29.7769 39.7487 29.8851 39.626 29.8851 39.476C29.8851 39.326 29.7769 39.2033 29.6447 39.2033H28.8574L27.5472 35.9448H38.3895C39.0386 35.9448 39.5675 35.3449 39.5675 34.6154V10.3059C39.5675 9.56964 39.0386 8.97656 38.3895 8.97656ZM28.3165 39.2033H20.0404L21.3386 35.9448H27.0123L28.3165 39.2033ZM39.0867 34.6154C39.0867 35.0449 38.7742 35.3994 38.3895 35.3994H9.96739C9.58875 35.3994 9.27622 35.0449 9.27622 34.6154V32.5362H39.0867V34.6154ZM39.0867 31.9909H9.27622V10.3059C9.27622 9.86959 9.58274 9.52193 9.96138 9.52193H38.3835C38.7682 9.52193 39.0807 9.87641 39.0807 10.3059V31.9909H39.0867Z" fill="#333333"/>
    <path d="M23.1357 33.9679C23.1357 34.2406 22.9433 34.4519 22.7089 34.4519C22.4746 34.4519 22.2822 34.2338 22.2822 33.9679C22.2822 33.702 22.4746 33.4839 22.7089 33.4839C22.9433 33.4839 23.1357 33.702 23.1357 33.9679Z" fill="#7C8B8E"/>
    <path d="M24.6083 33.9679C24.6083 34.2406 24.416 34.4519 24.1816 34.4519C23.9472 34.4519 23.7549 34.2338 23.7549 33.9679C23.7549 33.702 23.9472 33.4839 24.1816 33.4839C24.416 33.4839 24.6083 33.702 24.6083 33.9679Z" fill="#7C8B8E"/>
    <path d="M26.0868 33.9679C26.0868 34.2406 25.8945 34.4519 25.6601 34.4519C25.4257 34.4519 25.2334 34.2338 25.2334 33.9679C25.2334 33.702 25.4257 33.4839 25.6601 33.4839C25.8945 33.4839 26.0868 33.702 26.0868 33.9679Z" fill="#7C8B8E"/>
    <path d="M31.7483 16.9933C30.5763 18.3226 28.6771 18.3226 27.4991 16.9933C26.3271 15.664 26.3271 13.503 27.4991 12.1737C28.3285 11.2329 29.5185 10.9602 30.5583 11.3488L28.3345 13.8711L28.7312 15.5958L30.2518 16.0458L32.4755 13.5234C32.8181 14.696 32.5777 16.0526 31.7483 16.9933Z" fill="#D3D8D9"/>
    <path d="M30.5641 11.349L30.1675 11.7989C29.3982 11.7989 28.6349 12.1329 28.0519 12.7942C26.9701 14.0213 26.8859 15.9505 27.7995 17.2798C27.6973 17.1912 27.6011 17.0957 27.505 16.9867C26.333 15.6574 26.333 13.5032 27.505 12.167C28.3284 11.2331 29.5244 10.9604 30.5641 11.349Z" fill="#EDEDED"/>
    <path d="M31.7482 16.9933C30.5762 18.3226 28.677 18.3226 27.499 16.9933C27.4089 16.8911 27.3187 16.782 27.2466 16.6661C28.4246 17.6955 30.1194 17.6 31.2013 16.373C31.7843 15.7117 32.0788 14.8391 32.0788 13.9734L32.4754 13.5234C32.818 14.696 32.5776 16.0526 31.7482 16.9933Z" fill="#A8B1B3"/>
    <path d="M16.6144 24.5195C17.7864 23.1901 19.6856 23.1901 20.8636 24.5195C22.0356 25.8488 22.0356 28.0098 20.8636 29.3391C20.0342 30.2798 18.8442 30.5525 17.8044 30.164L20.0282 27.6417L19.6315 25.9169L18.1109 25.467L15.8872 27.9893C15.5446 26.81 15.785 25.4602 16.6144 24.5195Z" fill="#D3D8D9"/>
    <path d="M17.8047 30.1642L18.2014 29.7143C18.9707 29.7143 19.734 29.3803 20.3169 28.719C21.3988 27.4919 21.4829 25.5627 20.5694 24.2334C20.6715 24.322 20.7677 24.4175 20.8639 24.5265C22.0359 25.8559 22.0359 28.01 20.8639 29.3462C20.0345 30.2801 18.8444 30.5528 17.8047 30.1642Z" fill="#A8B1B3"/>
    <path d="M16.6148 24.5195C17.7867 23.1901 19.686 23.1901 20.864 24.5195C20.9541 24.6217 21.0443 24.7308 21.1164 24.8467C19.9384 23.8173 18.2435 23.9127 17.1617 25.1398C16.5787 25.8011 16.2842 26.6736 16.2842 27.5394L15.8875 27.9893C15.545 26.81 15.7914 25.4602 16.6148 24.5195Z" fill="#EDEDED"/>
    <path d="M25.1614 21.8609C24.0014 23.1766 22.7814 24.4377 21.5192 25.6239C21.375 25.2217 21.1526 24.8467 20.8701 24.5195C20.5816 24.1923 20.2511 23.9469 19.8965 23.7833C20.9483 22.3449 22.0541 20.9679 23.2141 19.6522C24.3741 18.3365 25.5881 17.0821 26.8563 15.8892C27.0065 16.2914 27.2229 16.6663 27.5114 16.9935C27.7999 17.3207 28.1304 17.5662 28.485 17.7298C27.4272 19.1682 26.3214 20.5452 25.1614 21.8609Z" fill="#A8B1B3"/>
    <path d="M28.4783 17.7299C27.4265 19.1683 26.3206 20.5453 25.1607 21.861C24.0007 23.1767 22.7867 24.4378 21.5185 25.624C21.4284 25.3786 21.3142 25.14 21.1699 24.9218C22.384 23.7766 23.55 22.5631 24.6618 21.2952C25.7737 20.034 26.8435 18.7115 27.8592 17.3345C28.0516 17.4981 28.2619 17.6276 28.4783 17.7299Z" fill="#7C8B8D"/>
    <path d="M26.8499 15.8892C26.9401 16.1346 27.0543 16.3664 27.1985 16.5913C25.9845 17.7434 24.8185 18.95 23.7066 20.218C22.5947 21.4859 21.5249 22.8085 20.5092 24.1787C20.3169 24.0151 20.1065 23.8855 19.8901 23.7833C20.9419 22.3449 22.0478 20.9679 23.2078 19.6522C24.3677 18.3297 25.5818 17.0753 26.8499 15.8892Z" fill="#D3D8D9"/>
    <path d="M19.8992 14.6183L18.7603 15.9102L25.3772 23.4154L26.5161 22.1236L19.8992 14.6183Z" fill="#D3D8D9"/>
    <path d="M19.9031 14.6164L18.7642 15.9082L19.4101 16.6409L20.5491 15.349L19.9031 14.6164Z" fill="#EDEDED"/>
    <path d="M25.8704 21.3878L24.7314 22.6797L25.3774 23.4124L26.5164 22.1205L25.8704 21.3878Z" fill="#A8B1B3"/>
    <path d="M19.9021 14.6145L18.7602 15.9097L18.1532 15.4257L17.1675 14.6486L16.3501 13.1761L17.492 11.8809L18.7902 12.808L19.4754 13.926L19.9021 14.6145Z" fill="#D3D8D9"/>
    <path d="M18.0991 12.3171L16.7347 13.8646L16.3501 13.1761L17.492 11.8809L18.0991 12.3171Z" fill="#EDEDED"/>
    <path d="M19.9023 14.6143L18.7603 15.9095L18.1533 15.4255L19.4756 13.9258L19.9023 14.6143Z" fill="#A8B1B3"/>
    <path d="M24.9265 24.7238L29.2718 29.6526C29.9991 30.4774 31.1831 30.5729 31.9584 29.8093C32.4031 29.3662 32.6255 28.7595 32.6255 28.146C32.6255 27.5802 32.4332 27.0144 32.0545 26.5917L27.6671 21.6153C27.4748 21.3971 27.1562 21.3971 26.9639 21.6153L24.9265 23.9262C24.7341 24.1444 24.7341 24.4989 24.9265 24.7238Z" fill="#FB8A8A"/>
    <path d="M31.8083 29.9325C31.8564 29.8916 31.9105 29.8439 31.9586 29.803C32.4033 29.3599 32.6257 28.7532 32.6257 28.1396C32.6257 27.5738 32.4334 27.008 32.0547 26.5854L27.6673 21.6089C27.475 21.3908 27.1564 21.3908 26.9641 21.6089L26.5073 22.127C26.6996 21.9089 27.0182 21.9089 27.2105 22.127L31.5979 27.1035C31.9766 27.5329 32.1629 28.0987 32.1689 28.6577C32.1689 29.1077 32.0487 29.5576 31.8083 29.9325Z" fill="#FCB1B1"/>
    <path d="M24.9265 24.7239L29.2718 29.6526C29.9991 30.4775 31.1831 30.5729 31.9584 29.8094C32.0786 29.6935 32.1808 29.564 32.2649 29.4208C31.4896 30.0412 30.4078 29.9048 29.7286 29.1345L25.3832 24.2058C25.1909 23.9877 25.1909 23.6263 25.3832 23.4082L24.9265 23.9263C24.7341 24.1444 24.7341 24.4989 24.9265 24.7239Z" fill="#F96363"/>
    <path d="M27.8416 21.4178C27.5532 21.0906 27.0844 21.0906 26.7959 21.4178L26.5134 21.7382L26.0506 21.2133C26.9161 20.1907 27.7515 19.1341 28.5508 18.0502C29.7589 18.5342 31.0511 18.1661 31.9165 17.1844C32.788 16.196 33.0885 14.7576 32.7039 13.4351C32.6798 13.3464 32.6137 13.2783 32.5296 13.2578C32.4514 13.2374 32.3613 13.2646 32.3012 13.3328L30.1736 15.746L28.9235 15.3779L28.5989 13.96L30.7325 11.5399C30.7926 11.4717 30.8167 11.3763 30.7986 11.2877C30.7806 11.1922 30.7205 11.1241 30.6424 11.09C29.4704 10.6537 28.2083 10.9946 27.3368 11.983C26.4293 13.0124 26.1768 14.5053 26.5795 15.8006C25.6239 16.7004 24.6923 17.6548 23.7908 18.6364L20.0945 14.444L18.9887 12.6511C18.9706 12.6238 18.9466 12.5966 18.9165 12.5761L17.6183 11.649C17.5222 11.5808 17.402 11.5945 17.3178 11.6899L16.1759 12.9851C16.0978 13.0737 16.0797 13.2169 16.1398 13.326L16.9572 14.7985C16.9752 14.8257 16.9933 14.853 17.0233 14.8734L18.598 16.121L22.2943 20.3134C21.4288 21.336 20.5934 22.3858 19.8 23.4629C18.592 22.9653 17.2818 23.3607 16.4343 24.3287C15.5629 25.3171 15.2623 26.7555 15.647 28.078C15.671 28.1667 15.7372 28.2348 15.8213 28.2553C15.8994 28.2757 15.9896 28.2485 16.0497 28.1803L18.1773 25.7671L19.4274 26.1352L19.7519 27.5531L17.6304 29.9732C17.5703 30.0413 17.5462 30.1368 17.5642 30.2322C17.5823 30.3277 17.6424 30.3958 17.7205 30.4299C18.0571 30.5526 18.3997 30.6208 18.7422 30.6208C19.5837 30.6208 20.4071 30.2459 21.0261 29.5437C21.9336 28.5143 22.1861 27.0214 21.7894 25.7262C22.739 24.8263 23.6646 23.8787 24.5661 22.8971L25.0289 23.422L24.7464 23.7424C24.4579 24.0696 24.4579 24.6014 24.7464 24.9286L29.0918 29.8573C29.9212 30.798 31.2434 30.873 32.1089 30.0209C33.0645 29.0733 33.1186 27.4168 32.2231 26.401L27.8416 21.4178ZM27.6734 12.3648C28.2023 11.7649 28.8994 11.4445 29.6207 11.4445C29.7769 11.4445 29.9392 11.4581 30.0955 11.4922L28.1722 13.6736C28.1121 13.7418 28.0881 13.8441 28.1121 13.9327L28.5088 15.6574C28.5328 15.7528 28.5989 15.8278 28.6831 15.8551L30.1976 16.305C30.2818 16.3255 30.3659 16.305 30.426 16.2369L32.3493 14.0554C32.5055 15.0507 32.2231 16.0732 31.58 16.8027C30.5042 18.0229 28.7492 18.0229 27.6734 16.8027C26.5975 15.5824 26.5975 13.5918 27.6734 12.3648ZM26.7658 16.3187C26.9161 16.6391 27.1024 16.9254 27.3308 17.1844C27.5592 17.4435 27.8116 17.6548 28.0881 17.8252C27.3308 18.8478 26.5314 19.8499 25.708 20.8179L24.1153 19.0114C24.9808 18.0843 25.8643 17.1776 26.7658 16.3187ZM17.3479 14.4576L16.6567 13.2169L17.5282 12.2284L18.622 13.0056L19.5897 14.5803L18.7362 15.5483L17.3479 14.4576ZM20.6955 29.1415C20.0525 29.8709 19.1509 30.1913 18.2734 30.0141L20.1967 27.8326C20.2568 27.7645 20.2808 27.6622 20.2568 27.5736L19.8601 25.8489C19.8361 25.7534 19.77 25.6784 19.6858 25.6512L18.1713 25.2013C18.0871 25.174 18.003 25.2013 17.9429 25.2694L16.0196 27.4509C15.8634 26.4556 16.1458 25.433 16.7889 24.7036C17.8527 23.497 19.5957 23.4561 20.6955 24.7036C21.7714 25.9375 21.7714 27.9212 20.6955 29.1415ZM21.5971 25.1944C21.4468 24.874 21.2605 24.5877 21.0321 24.3287C20.8037 24.0696 20.5513 23.8583 20.2748 23.6879C21.0321 22.6653 21.8255 21.67 22.6489 20.702L24.2355 22.5017C23.3821 23.4288 22.4986 24.3355 21.5971 25.1944ZM19.1028 15.9096L19.9022 15.003L26.1768 22.12L25.3775 23.0266L19.1028 15.9096ZM31.8023 29.5982C31.1292 30.2595 30.0955 30.1981 29.4404 29.4551L25.095 24.5264C25.0469 24.4718 25.0169 24.3968 25.0169 24.3219C25.0169 24.2469 25.0409 24.1719 25.095 24.1173L27.1324 21.8064C27.1805 21.7518 27.2466 21.7177 27.3127 21.7177C27.3789 21.7177 27.445 21.745 27.4931 21.8064L31.8805 26.7828C32.5897 27.5736 32.5416 28.862 31.8023 29.5982Z" fill="#333333"/>
    <path d="M31.1113 27.9689L27.2347 23.5719C27.1386 23.4629 27.1386 23.2924 27.2347 23.1834C27.3309 23.0743 27.4811 23.0743 27.5773 23.1834L31.4539 27.5804C31.55 27.6894 31.55 27.8599 31.4539 27.9689C31.3577 28.078 31.2074 28.078 31.1113 27.9689Z" fill="#333333"/>
    <path d="M30.1612 28.9642L26.3207 24.6081C26.2245 24.499 26.2245 24.3286 26.3207 24.2195C26.4168 24.1104 26.5671 24.1104 26.6632 24.2195L30.5037 28.5756C30.5999 28.6847 30.5999 28.8551 30.5037 28.9642C30.4076 29.0732 30.2513 29.0732 30.1612 28.9642Z" fill="#333333"/>
</svg>